<svg width="101" height="18" viewBox="0 0 101 18" fill="none" xmlns="http://www.w3.org/2000/svg">
<path d="M3.39062 12C4.27604 12 4.95964 12.2539 5.44141 12.7617C5.92318 13.2565 6.16406 13.8815 6.16406 14.6367C6.16406 15.3789 5.92318 15.9974 5.44141 16.4922C4.95964 16.974 4.27604 17.2148 3.39062 17.2148C2.54427 17.2148 1.8737 16.974 1.37891 16.4922C0.884115 16.0104 0.636719 15.3919 0.636719 14.6367C0.636719 13.8815 0.877604 13.2565 1.35938 12.7617C1.84115 12.2539 2.51823 12 3.39062 12ZM22.6484 2.93945H17.5498V17H14.731V2.93945H9.67725V0.648438H22.6484V2.93945ZM37.7871 17H34.957V9.73389H27.646V17H24.8047V0.648438H27.646V7.4541H34.957V0.648438H37.7871V17ZM50.7134 9.7002H43.9976V14.7314H51.8477V17H41.1562V0.648438H51.769V2.93945H43.9976V7.4541H50.7134V9.7002ZM71.0293 2.93945H65.9307V17H63.1118V2.93945H58.0581V0.648438H71.0293V2.93945ZM85.9209 9.25098C85.9209 10.8532 85.6439 12.2607 85.0898 13.4736C84.5358 14.679 83.7422 15.6074 82.709 16.2588C81.6833 16.9027 80.5003 17.2246 79.1602 17.2246C77.835 17.2246 76.652 16.9027 75.6113 16.2588C74.5781 15.6074 73.777 14.6828 73.208 13.4849C72.6465 12.2869 72.362 10.9056 72.3545 9.34082V8.41992C72.3545 6.8252 72.6353 5.41764 73.1968 4.19727C73.7658 2.97689 74.5632 2.04476 75.5889 1.40088C76.6221 0.749512 77.805 0.423828 79.1377 0.423828C80.4704 0.423828 81.6496 0.745768 82.6753 1.38965C83.7085 2.02604 84.5059 2.94694 85.0674 4.15234C85.6289 5.35026 85.9134 6.74658 85.9209 8.34131V9.25098ZM83.0796 8.39746C83.0796 6.58561 82.7352 5.19678 82.0464 4.23096C81.3651 3.26514 80.3955 2.78223 79.1377 2.78223C77.9098 2.78223 76.9478 3.26514 76.2515 4.23096C75.5627 5.18929 75.2108 6.54818 75.1958 8.30762V9.25098C75.1958 11.0479 75.5439 12.4367 76.2402 13.4175C76.944 14.3983 77.9173 14.8887 79.1602 14.8887C80.418 14.8887 81.3838 14.4095 82.0576 13.4512C82.7389 12.4928 83.0796 11.0928 83.0796 9.25098V8.39746ZM91.5923 10.9243V17H88.751V0.648438H95.0063C96.8332 0.648438 98.2819 1.12386 99.3525 2.07471C100.431 3.02555 100.97 4.28337 100.97 5.84814C100.97 7.45036 100.442 8.69694 99.3862 9.58789C98.3381 10.4788 96.8669 10.9243 94.9727 10.9243H91.5923ZM91.5923 8.64453H95.0063C96.0171 8.64453 96.7882 8.40869 97.3198 7.93701C97.8514 7.45785 98.1172 6.76904 98.1172 5.87061C98.1172 4.98714 97.8477 4.28337 97.3086 3.75928C96.7695 3.2277 96.0283 2.95443 95.085 2.93945H91.5923V8.64453Z" fill="white"/>
</svg>
